<?xml version="1.0" encoding="UTF-8" standalone="no"?>
<!DOCTYPE svg PUBLIC "-//W3C//DTD SVG 1.1//EN"
 "http://www.w3.org/Graphics/SVG/1.1/DTD/svg11.dtd">
<!-- Generated by graphviz version 2.47.0 (20210316.0004)
 -->
<!-- Title: dependencies Pages: 1 -->
<svg width="1749pt" height="284pt"
 viewBox="0.00 0.00 1749.00 284.00" xmlns="http://www.w3.org/2000/svg" xmlns:xlink="http://www.w3.org/1999/xlink">
<g id="graph0" class="graph" transform="scale(1 1) rotate(0) translate(4 280)">
<title>dependencies</title>
<polygon fill="white" stroke="transparent" points="-4,4 -4,-280 1745,-280 1745,4 -4,4"/>
<text text-anchor="start" x="849.51" y="-42.4" font-family="Times-12" font-weight="bold" font-size="14.00">Legend</text>
<polygon fill="#ffffb3" stroke="transparent" points="636.5,-10 636.5,-30 656.5,-30 656.5,-10 636.5,-10"/>
<text text-anchor="start" x="660.13" y="-15.4" font-family="Times-12" font-size="14.00"> &#160;Declarations</text>
<polygon fill="#8dd3c7" stroke="transparent" points="749.5,-10 749.5,-30 769.5,-30 769.5,-10 749.5,-10"/>
<text text-anchor="start" x="773.23" y="-15.4" font-family="Times-12" font-size="14.00"> &#160;Module</text>
<polygon fill="#80b1d3" stroke="transparent" points="835.5,-10 835.5,-30 855.5,-30 855.5,-10 835.5,-10"/>
<text text-anchor="start" x="859.28" y="-15.4" font-family="Times-12" font-size="14.00"> &#160;Bootstrap</text>
<polygon fill="#fdb462" stroke="transparent" points="932.5,-10 932.5,-30 952.5,-30 952.5,-10 932.5,-10"/>
<text text-anchor="start" x="956.17" y="-15.4" font-family="Times-12" font-size="14.00"> &#160;Providers</text>
<polygon fill="#fb8072" stroke="transparent" points="1028.5,-10 1028.5,-30 1048.5,-30 1048.5,-10 1028.5,-10"/>
<text text-anchor="start" x="1052.23" y="-15.4" font-family="Times-12" font-size="14.00"> &#160;Exports</text>
<g id="clust1" class="cluster">
<title>cluster_AppModule</title>
<polygon fill="none" stroke="black" stroke-dasharray="1,5" points="8,-70 8,-268 1733,-268 1733,-70 8,-70"/>
</g>
<g id="clust14" class="cluster">
<title>cluster_AppModule_imports</title>
<polygon fill="none" stroke="black" points="1581,-78 1581,-130 1725,-130 1725,-78 1581,-78"/>
</g>
<g id="clust16" class="cluster">
<title>cluster_AppModule_bootstrap</title>
<polygon fill="none" stroke="black" points="848,-208 848,-260 972,-260 972,-208 848,-208"/>
</g>
<g id="clust2" class="cluster">
<title>cluster_AppModule_declarations</title>
<polygon fill="none" stroke="black" points="16,-78 16,-130 1573,-130 1573,-78 16,-78"/>
</g>
<!-- AppComponent -->
<g id="node1" class="node">
<title>AppComponent</title>
<polygon fill="#ffffb3" stroke="black" points="1564.94,-122 1459.06,-122 1459.06,-86 1564.94,-86 1564.94,-122"/>
<text text-anchor="middle" x="1512" y="-99.8" font-family="Times,serif" font-size="14.00">AppComponent</text>
</g>
<!-- AppModule -->
<g id="node12" class="node">
<title>AppModule</title>
<polygon fill="#8dd3c7" stroke="black" points="951.66,-187 948.66,-191 927.66,-191 924.66,-187 868.34,-187 868.34,-151 951.66,-151 951.66,-187"/>
<text text-anchor="middle" x="910" y="-164.8" font-family="Times,serif" font-size="14.00">AppModule</text>
</g>
<!-- AppComponent&#45;&gt;AppModule -->
<g id="edge1" class="edge">
<title>AppComponent&#45;&gt;AppModule</title>
<path fill="none" stroke="black" d="M1512,-122.28C1512,-143.32 1512,-175 1512,-175 1512,-175 961.85,-175 961.85,-175"/>
<polygon fill="black" stroke="black" points="961.85,-171.5 951.85,-175 961.85,-178.5 961.85,-171.5"/>
</g>
<!-- BalanceComponent -->
<g id="node2" class="node">
<title>BalanceComponent</title>
<polygon fill="#ffffb3" stroke="black" points="1441.42,-122 1314.58,-122 1314.58,-86 1441.42,-86 1441.42,-122"/>
<text text-anchor="middle" x="1378" y="-99.8" font-family="Times,serif" font-size="14.00">BalanceComponent</text>
</g>
<!-- BalanceComponent&#45;&gt;AppModule -->
<g id="edge2" class="edge">
<title>BalanceComponent&#45;&gt;AppModule</title>
<path fill="none" stroke="black" d="M1378,-122.11C1378,-141.34 1378,-169 1378,-169 1378,-169 961.94,-169 961.94,-169"/>
<polygon fill="black" stroke="black" points="961.94,-165.5 951.94,-169 961.94,-172.5 961.94,-165.5"/>
</g>
<!-- HomeComponent -->
<g id="node3" class="node">
<title>HomeComponent</title>
<polygon fill="#ffffb3" stroke="black" points="1296.55,-122 1181.45,-122 1181.45,-86 1296.55,-86 1296.55,-122"/>
<text text-anchor="middle" x="1239" y="-99.8" font-family="Times,serif" font-size="14.00">HomeComponent</text>
</g>
<!-- HomeComponent&#45;&gt;AppModule -->
<g id="edge3" class="edge">
<title>HomeComponent&#45;&gt;AppModule</title>
<path fill="none" stroke="black" d="M1239,-122.02C1239,-139.37 1239,-163 1239,-163 1239,-163 961.67,-163 961.67,-163"/>
<polygon fill="black" stroke="black" points="961.67,-159.5 951.67,-163 961.67,-166.5 961.67,-159.5"/>
</g>
<!-- InicioComponent -->
<g id="node4" class="node">
<title>InicioComponent</title>
<polygon fill="#ffffb3" stroke="black" points="1162.99,-122 1049.01,-122 1049.01,-86 1162.99,-86 1162.99,-122"/>
<text text-anchor="middle" x="1106" y="-99.8" font-family="Times,serif" font-size="14.00">InicioComponent</text>
</g>
<!-- InicioComponent&#45;&gt;AppModule -->
<g id="edge4" class="edge">
<title>InicioComponent&#45;&gt;AppModule</title>
<path fill="none" stroke="black" d="M1106,-122.24C1106,-137.57 1106,-157 1106,-157 1106,-157 962.05,-157 962.05,-157"/>
<polygon fill="black" stroke="black" points="962.05,-153.5 952.05,-157 962.05,-160.5 962.05,-153.5"/>
</g>
<!-- LoginComponent -->
<g id="node5" class="node">
<title>LoginComponent</title>
<polygon fill="#ffffb3" stroke="black" points="1031.28,-122 916.72,-122 916.72,-86 1031.28,-86 1031.28,-122"/>
<text text-anchor="middle" x="974" y="-99.8" font-family="Times,serif" font-size="14.00">LoginComponent</text>
</g>
<!-- LoginComponent&#45;&gt;AppModule -->
<g id="edge5" class="edge">
<title>LoginComponent&#45;&gt;AppModule</title>
<path fill="none" stroke="black" d="M934.22,-122.11C934.22,-122.11 934.22,-140.99 934.22,-140.99"/>
<polygon fill="black" stroke="black" points="930.72,-140.99 934.22,-150.99 937.72,-140.99 930.72,-140.99"/>
</g>
<!-- NavComponent -->
<g id="node6" class="node">
<title>NavComponent</title>
<polygon fill="#ffffb3" stroke="black" points="898.15,-122 793.85,-122 793.85,-86 898.15,-86 898.15,-122"/>
<text text-anchor="middle" x="846" y="-99.8" font-family="Times,serif" font-size="14.00">NavComponent</text>
</g>
<!-- NavComponent&#45;&gt;AppModule -->
<g id="edge6" class="edge">
<title>NavComponent&#45;&gt;AppModule</title>
<path fill="none" stroke="black" d="M883.25,-122.11C883.25,-122.11 883.25,-140.99 883.25,-140.99"/>
<polygon fill="black" stroke="black" points="879.75,-140.99 883.25,-150.99 886.75,-140.99 879.75,-140.99"/>
</g>
<!-- PasswordComponent -->
<g id="node7" class="node">
<title>PasswordComponent</title>
<polygon fill="#ffffb3" stroke="black" points="775.49,-122 640.51,-122 640.51,-86 775.49,-86 775.49,-122"/>
<text text-anchor="middle" x="708" y="-99.8" font-family="Times,serif" font-size="14.00">PasswordComponent</text>
</g>
<!-- PasswordComponent&#45;&gt;AppModule -->
<g id="edge7" class="edge">
<title>PasswordComponent&#45;&gt;AppModule</title>
<path fill="none" stroke="black" d="M708,-122.24C708,-137.57 708,-157 708,-157 708,-157 858.15,-157 858.15,-157"/>
<polygon fill="black" stroke="black" points="858.15,-160.5 868.15,-157 858.15,-153.5 858.15,-160.5"/>
</g>
<!-- PerfilComponent -->
<g id="node8" class="node">
<title>PerfilComponent</title>
<polygon fill="#ffffb3" stroke="black" points="622.43,-122 509.57,-122 509.57,-86 622.43,-86 622.43,-122"/>
<text text-anchor="middle" x="566" y="-99.8" font-family="Times,serif" font-size="14.00">PerfilComponent</text>
</g>
<!-- PerfilComponent&#45;&gt;AppModule -->
<g id="edge8" class="edge">
<title>PerfilComponent&#45;&gt;AppModule</title>
<path fill="none" stroke="black" d="M566,-122.02C566,-139.37 566,-163 566,-163 566,-163 858.16,-163 858.16,-163"/>
<polygon fill="black" stroke="black" points="858.16,-166.5 868.16,-163 858.16,-159.5 858.16,-166.5"/>
</g>
<!-- RegisterComponent -->
<g id="node9" class="node">
<title>RegisterComponent</title>
<polygon fill="#ffffb3" stroke="black" points="491.98,-122 364.02,-122 364.02,-86 491.98,-86 491.98,-122"/>
<text text-anchor="middle" x="428" y="-99.8" font-family="Times,serif" font-size="14.00">RegisterComponent</text>
</g>
<!-- RegisterComponent&#45;&gt;AppModule -->
<g id="edge9" class="edge">
<title>RegisterComponent&#45;&gt;AppModule</title>
<path fill="none" stroke="black" d="M428,-122.11C428,-141.34 428,-169 428,-169 428,-169 858.07,-169 858.07,-169"/>
<polygon fill="black" stroke="black" points="858.07,-172.5 868.07,-169 858.07,-165.5 858.07,-172.5"/>
</g>
<!-- RegisterServiceComponent -->
<g id="node10" class="node">
<title>RegisterServiceComponent</title>
<polygon fill="#ffffb3" stroke="black" points="345.96,-122 176.04,-122 176.04,-86 345.96,-86 345.96,-122"/>
<text text-anchor="middle" x="261" y="-99.8" font-family="Times,serif" font-size="14.00">RegisterServiceComponent</text>
</g>
<!-- RegisterServiceComponent&#45;&gt;AppModule -->
<g id="edge10" class="edge">
<title>RegisterServiceComponent&#45;&gt;AppModule</title>
<path fill="none" stroke="black" d="M261,-122.28C261,-143.32 261,-175 261,-175 261,-175 857.92,-175 857.92,-175"/>
<polygon fill="black" stroke="black" points="857.92,-178.5 867.92,-175 857.92,-171.5 857.92,-178.5"/>
</g>
<!-- ServiciosComponent -->
<g id="node11" class="node">
<title>ServiciosComponent</title>
<polygon fill="#ffffb3" stroke="black" points="157.93,-122 24.07,-122 24.07,-86 157.93,-86 157.93,-122"/>
<text text-anchor="middle" x="91" y="-99.8" font-family="Times,serif" font-size="14.00">ServiciosComponent</text>
</g>
<!-- ServiciosComponent&#45;&gt;AppModule -->
<g id="edge11" class="edge">
<title>ServiciosComponent&#45;&gt;AppModule</title>
<path fill="none" stroke="black" d="M91,-122.25C91,-145.02 91,-181 91,-181 91,-181 858.26,-181 858.26,-181"/>
<polygon fill="black" stroke="black" points="858.26,-184.5 868.26,-181 858.26,-177.5 858.26,-184.5"/>
</g>
<!-- AppComponent  -->
<g id="node14" class="node">
<title>AppComponent </title>
<polygon fill="#80b1d3" stroke="black" points="964.44,-252 855.56,-252 855.56,-216 964.44,-216 964.44,-252"/>
<text text-anchor="middle" x="910" y="-229.8" font-family="Times,serif" font-size="14.00">AppComponent </text>
</g>
<!-- AppModule&#45;&gt;AppComponent  -->
<g id="edge13" class="edge">
<title>AppModule&#45;&gt;AppComponent </title>
<path fill="none" stroke="black" stroke-dasharray="1,5" d="M910,-187.11C910,-187.11 910,-205.99 910,-205.99"/>
<polygon fill="black" stroke="black" points="906.5,-205.99 910,-215.99 913.5,-205.99 906.5,-205.99"/>
</g>
<!-- AppRoutingModule -->
<g id="node13" class="node">
<title>AppRoutingModule</title>
<polygon fill="#8dd3c7" stroke="black" points="1717.27,-122 1714.27,-126 1693.27,-126 1690.27,-122 1588.73,-122 1588.73,-86 1717.27,-86 1717.27,-122"/>
<text text-anchor="middle" x="1653" y="-99.8" font-family="Times,serif" font-size="14.00">AppRoutingModule</text>
</g>
<!-- AppRoutingModule&#45;&gt;AppModule -->
<g id="edge12" class="edge">
<title>AppRoutingModule&#45;&gt;AppModule</title>
<path fill="none" stroke="black" d="M1653,-122.25C1653,-145.02 1653,-181 1653,-181 1653,-181 961.81,-181 961.81,-181"/>
<polygon fill="black" stroke="black" points="961.81,-177.5 951.81,-181 961.81,-184.5 961.81,-177.5"/>
</g>
</g>
</svg>
