<?xml version="1.0" encoding="UTF-8" standalone="no"?>
<!DOCTYPE svg PUBLIC "-//W3C//DTD SVG 1.1//EN"
 "http://www.w3.org/Graphics/SVG/1.1/DTD/svg11.dtd">
<!-- Generated by graphviz version 2.47.0 (20210316.0004)
 -->
<!-- Title: dependencies Pages: 1 -->
<svg width="1749pt" height="284pt"
 viewBox="0.00 0.00 1749.00 284.00" xmlns="http://www.w3.org/2000/svg" xmlns:xlink="http://www.w3.org/1999/xlink">
<g id="graph0" class="graph" transform="scale(1 1) rotate(0) translate(4 280)">
<title>dependencies</title>
<polygon fill="white" stroke="transparent" points="-4,4 -4,-280 1745,-280 1745,4 -4,4"/>
<text text-anchor="start" x="849.51" y="-42.4" font-family="Times-12" font-weight="bold" font-size="14.00">Legend</text>
<polygon fill="#ffffb3" stroke="transparent" points="636.5,-10 636.5,-30 656.5,-30 656.5,-10 636.5,-10"/>
<text text-anchor="start" x="660.13" y="-15.4" font-family="Times-12" font-size="14.00"> &#160;Declarations</text>
<polygon fill="#8dd3c7" stroke="transparent" points="749.5,-10 749.5,-30 769.5,-30 769.5,-10 749.5,-10"/>
<text text-anchor="start" x="773.23" y="-15.4" font-family="Times-12" font-size="14.00"> &#160;Module</text>
<polygon fill="#80b1d3" stroke="transparent" points="835.5,-10 835.5,-30 855.5,-30 855.5,-10 835.5,-10"/>
<text text-anchor="start" x="859.28" y="-15.4" font-family="Times-12" font-size="14.00"> &#160;Bootstrap</text>
<polygon fill="#fdb462" stroke="transparent" points="932.5,-10 932.5,-30 952.5,-30 952.5,-10 932.5,-10"/>
<text text-anchor="start" x="956.17" y="-15.4" font-family="Times-12" font-size="14.00"> &#160;Providers</text>
<polygon fill="#fb8072" stroke="transparent" points="1028.5,-10 1028.5,-30 1048.5,-30 1048.5,-10 1028.5,-10"/>
<text text-anchor="start" x="1052.23" y="-15.4" font-family="Times-12" font-size="14.00"> &#160;Exports</text>
<g id="clust1" class="cluster">
<title>cluster_AppModule</title>
<polygon fill="none" stroke="black" stroke-dasharray="1,5" points="8,-70 8,-268 1733,-268 1733,-70 8,-70"/>
</g>
<g id="clust2" class="cluster">
<title>cluster_AppModule_declarations</title>
<polygon fill="none" stroke="black" points="168,-78 168,-130 1725,-130 1725,-78 168,-78"/>
</g>
<g id="clust14" class="cluster">
<title>cluster_AppModule_imports</title>
<polygon fill="none" stroke="black" points="16,-78 16,-130 160,-130 160,-78 16,-78"/>
</g>
<g id="clust16" class="cluster">
<title>cluster_AppModule_bootstrap</title>
<polygon fill="none" stroke="black" points="867,-208 867,-260 991,-260 991,-208 867,-208"/>
</g>
<!-- AppComponent -->
<g id="node1" class="node">
<title>AppComponent</title>
<polygon fill="#ffffb3" stroke="black" points="1716.94,-122 1611.06,-122 1611.06,-86 1716.94,-86 1716.94,-122"/>
<text text-anchor="middle" x="1664" y="-99.8" font-family="Times,serif" font-size="14.00">AppComponent</text>
</g>
<!-- AppModule -->
<g id="node12" class="node">
<title>AppModule</title>
<polygon fill="#8dd3c7" stroke="black" points="970.66,-187 967.66,-191 946.66,-191 943.66,-187 887.34,-187 887.34,-151 970.66,-151 970.66,-187"/>
<text text-anchor="middle" x="929" y="-164.8" font-family="Times,serif" font-size="14.00">AppModule</text>
</g>
<!-- AppComponent&#45;&gt;AppModule -->
<g id="edge1" class="edge">
<title>AppComponent&#45;&gt;AppModule</title>
<path fill="none" stroke="black" d="M1664,-122.25C1664,-145.02 1664,-181 1664,-181 1664,-181 980.89,-181 980.89,-181"/>
<polygon fill="black" stroke="black" points="980.89,-177.5 970.89,-181 980.89,-184.5 980.89,-177.5"/>
</g>
<!-- BalanceComponent -->
<g id="node2" class="node">
<title>BalanceComponent</title>
<polygon fill="#ffffb3" stroke="black" points="1593.42,-122 1466.58,-122 1466.58,-86 1593.42,-86 1593.42,-122"/>
<text text-anchor="middle" x="1530" y="-99.8" font-family="Times,serif" font-size="14.00">BalanceComponent</text>
</g>
<!-- BalanceComponent&#45;&gt;AppModule -->
<g id="edge2" class="edge">
<title>BalanceComponent&#45;&gt;AppModule</title>
<path fill="none" stroke="black" d="M1530,-122.28C1530,-143.32 1530,-175 1530,-175 1530,-175 980.78,-175 980.78,-175"/>
<polygon fill="black" stroke="black" points="980.78,-171.5 970.78,-175 980.78,-178.5 980.78,-171.5"/>
</g>
<!-- HomeComponent -->
<g id="node3" class="node">
<title>HomeComponent</title>
<polygon fill="#ffffb3" stroke="black" points="1448.55,-122 1333.45,-122 1333.45,-86 1448.55,-86 1448.55,-122"/>
<text text-anchor="middle" x="1391" y="-99.8" font-family="Times,serif" font-size="14.00">HomeComponent</text>
</g>
<!-- HomeComponent&#45;&gt;AppModule -->
<g id="edge3" class="edge">
<title>HomeComponent&#45;&gt;AppModule</title>
<path fill="none" stroke="black" d="M1391,-122.11C1391,-141.34 1391,-169 1391,-169 1391,-169 980.81,-169 980.81,-169"/>
<polygon fill="black" stroke="black" points="980.81,-165.5 970.81,-169 980.81,-172.5 980.81,-165.5"/>
</g>
<!-- InicioComponent -->
<g id="node4" class="node">
<title>InicioComponent</title>
<polygon fill="#ffffb3" stroke="black" points="1314.99,-122 1201.01,-122 1201.01,-86 1314.99,-86 1314.99,-122"/>
<text text-anchor="middle" x="1258" y="-99.8" font-family="Times,serif" font-size="14.00">InicioComponent</text>
</g>
<!-- InicioComponent&#45;&gt;AppModule -->
<g id="edge4" class="edge">
<title>InicioComponent&#45;&gt;AppModule</title>
<path fill="none" stroke="black" d="M1258,-122.02C1258,-139.37 1258,-163 1258,-163 1258,-163 980.67,-163 980.67,-163"/>
<polygon fill="black" stroke="black" points="980.67,-159.5 970.67,-163 980.67,-166.5 980.67,-159.5"/>
</g>
<!-- LoginComponent -->
<g id="node5" class="node">
<title>LoginComponent</title>
<polygon fill="#ffffb3" stroke="black" points="1183.28,-122 1068.72,-122 1068.72,-86 1183.28,-86 1183.28,-122"/>
<text text-anchor="middle" x="1126" y="-99.8" font-family="Times,serif" font-size="14.00">LoginComponent</text>
</g>
<!-- LoginComponent&#45;&gt;AppModule -->
<g id="edge5" class="edge">
<title>LoginComponent&#45;&gt;AppModule</title>
<path fill="none" stroke="black" d="M1126,-122.24C1126,-137.57 1126,-157 1126,-157 1126,-157 980.78,-157 980.78,-157"/>
<polygon fill="black" stroke="black" points="980.78,-153.5 970.78,-157 980.78,-160.5 980.78,-153.5"/>
</g>
<!-- NavComponent -->
<g id="node6" class="node">
<title>NavComponent</title>
<polygon fill="#ffffb3" stroke="black" points="1050.15,-122 945.85,-122 945.85,-86 1050.15,-86 1050.15,-122"/>
<text text-anchor="middle" x="998" y="-99.8" font-family="Times,serif" font-size="14.00">NavComponent</text>
</g>
<!-- NavComponent&#45;&gt;AppModule -->
<g id="edge6" class="edge">
<title>NavComponent&#45;&gt;AppModule</title>
<path fill="none" stroke="black" d="M958.25,-122.11C958.25,-122.11 958.25,-140.99 958.25,-140.99"/>
<polygon fill="black" stroke="black" points="954.75,-140.99 958.25,-150.99 961.75,-140.99 954.75,-140.99"/>
</g>
<!-- PasswordComponent -->
<g id="node7" class="node">
<title>PasswordComponent</title>
<polygon fill="#ffffb3" stroke="black" points="927.49,-122 792.51,-122 792.51,-86 927.49,-86 927.49,-122"/>
<text text-anchor="middle" x="860" y="-99.8" font-family="Times,serif" font-size="14.00">PasswordComponent</text>
</g>
<!-- PasswordComponent&#45;&gt;AppModule -->
<g id="edge7" class="edge">
<title>PasswordComponent&#45;&gt;AppModule</title>
<path fill="none" stroke="black" d="M907.33,-122.11C907.33,-122.11 907.33,-140.99 907.33,-140.99"/>
<polygon fill="black" stroke="black" points="903.83,-140.99 907.33,-150.99 910.83,-140.99 903.83,-140.99"/>
</g>
<!-- PerfilComponent -->
<g id="node8" class="node">
<title>PerfilComponent</title>
<polygon fill="#ffffb3" stroke="black" points="774.43,-122 661.57,-122 661.57,-86 774.43,-86 774.43,-122"/>
<text text-anchor="middle" x="718" y="-99.8" font-family="Times,serif" font-size="14.00">PerfilComponent</text>
</g>
<!-- PerfilComponent&#45;&gt;AppModule -->
<g id="edge8" class="edge">
<title>PerfilComponent&#45;&gt;AppModule</title>
<path fill="none" stroke="black" d="M718,-122.24C718,-137.57 718,-157 718,-157 718,-157 877.31,-157 877.31,-157"/>
<polygon fill="black" stroke="black" points="877.31,-160.5 887.31,-157 877.31,-153.5 877.31,-160.5"/>
</g>
<!-- RegisterComponent -->
<g id="node9" class="node">
<title>RegisterComponent</title>
<polygon fill="#ffffb3" stroke="black" points="643.98,-122 516.02,-122 516.02,-86 643.98,-86 643.98,-122"/>
<text text-anchor="middle" x="580" y="-99.8" font-family="Times,serif" font-size="14.00">RegisterComponent</text>
</g>
<!-- RegisterComponent&#45;&gt;AppModule -->
<g id="edge9" class="edge">
<title>RegisterComponent&#45;&gt;AppModule</title>
<path fill="none" stroke="black" d="M580,-122.02C580,-139.37 580,-163 580,-163 580,-163 877.25,-163 877.25,-163"/>
<polygon fill="black" stroke="black" points="877.25,-166.5 887.25,-163 877.25,-159.5 877.25,-166.5"/>
</g>
<!-- RegisterServiceComponent -->
<g id="node10" class="node">
<title>RegisterServiceComponent</title>
<polygon fill="#ffffb3" stroke="black" points="497.96,-122 328.04,-122 328.04,-86 497.96,-86 497.96,-122"/>
<text text-anchor="middle" x="413" y="-99.8" font-family="Times,serif" font-size="14.00">RegisterServiceComponent</text>
</g>
<!-- RegisterServiceComponent&#45;&gt;AppModule -->
<g id="edge10" class="edge">
<title>RegisterServiceComponent&#45;&gt;AppModule</title>
<path fill="none" stroke="black" d="M413,-122.11C413,-141.34 413,-169 413,-169 413,-169 877.21,-169 877.21,-169"/>
<polygon fill="black" stroke="black" points="877.21,-172.5 887.21,-169 877.21,-165.5 877.21,-172.5"/>
</g>
<!-- ServiciosComponent -->
<g id="node11" class="node">
<title>ServiciosComponent</title>
<polygon fill="#ffffb3" stroke="black" points="309.93,-122 176.07,-122 176.07,-86 309.93,-86 309.93,-122"/>
<text text-anchor="middle" x="243" y="-99.8" font-family="Times,serif" font-size="14.00">ServiciosComponent</text>
</g>
<!-- ServiciosComponent&#45;&gt;AppModule -->
<g id="edge11" class="edge">
<title>ServiciosComponent&#45;&gt;AppModule</title>
<path fill="none" stroke="black" d="M243,-122.28C243,-143.32 243,-175 243,-175 243,-175 877.12,-175 877.12,-175"/>
<polygon fill="black" stroke="black" points="877.12,-178.5 887.12,-175 877.12,-171.5 877.12,-178.5"/>
</g>
<!-- AppComponent  -->
<g id="node14" class="node">
<title>AppComponent </title>
<polygon fill="#80b1d3" stroke="black" points="983.44,-252 874.56,-252 874.56,-216 983.44,-216 983.44,-252"/>
<text text-anchor="middle" x="929" y="-229.8" font-family="Times,serif" font-size="14.00">AppComponent </text>
</g>
<!-- AppModule&#45;&gt;AppComponent  -->
<g id="edge13" class="edge">
<title>AppModule&#45;&gt;AppComponent </title>
<path fill="none" stroke="black" stroke-dasharray="1,5" d="M929,-187.11C929,-187.11 929,-205.99 929,-205.99"/>
<polygon fill="black" stroke="black" points="925.5,-205.99 929,-215.99 932.5,-205.99 925.5,-205.99"/>
</g>
<!-- AppRoutingModule -->
<g id="node13" class="node">
<title>AppRoutingModule</title>
<polygon fill="#8dd3c7" stroke="black" points="152.27,-122 149.27,-126 128.27,-126 125.27,-122 23.73,-122 23.73,-86 152.27,-86 152.27,-122"/>
<text text-anchor="middle" x="88" y="-99.8" font-family="Times,serif" font-size="14.00">AppRoutingModule</text>
</g>
<!-- AppRoutingModule&#45;&gt;AppModule -->
<g id="edge12" class="edge">
<title>AppRoutingModule&#45;&gt;AppModule</title>
<path fill="none" stroke="black" d="M88,-122.25C88,-145.02 88,-181 88,-181 88,-181 877.29,-181 877.29,-181"/>
<polygon fill="black" stroke="black" points="877.29,-184.5 887.29,-181 877.29,-177.5 877.29,-184.5"/>
</g>
</g>
</svg>
